<svg xmlns="http://www.w3.org/2000/svg" xmlns:xlink="http://www.w3.org/1999/xlink" width="48" zoomAndPan="magnify" viewBox="0 0 36 36.000001" height="48" preserveAspectRatio="xMidYMid meet" version="1.0"><defs><clipPath id="a1a1570aca"><path d="M 0.488281 0 L 35.511719 0 L 35.511719 35.027344 L 0.488281 35.027344 Z M 0.488281 0 " clip-rule="nonzero"/></clipPath><clipPath id="639852bde7"><path d="M 18 0 C 8.328125 0 0.488281 7.839844 0.488281 17.511719 C 0.488281 27.1875 8.328125 35.027344 18 35.027344 C 27.671875 35.027344 35.511719 27.1875 35.511719 17.511719 C 35.511719 7.839844 27.671875 0 18 0 Z M 18 0 " clip-rule="nonzero"/></clipPath><clipPath id="afe46f62c2"><path d="M 6.824219 5.566406 L 28.71875 5.566406 L 28.71875 28.1875 L 6.824219 28.1875 Z M 6.824219 5.566406 " clip-rule="nonzero"/></clipPath><clipPath id="f31f6a12b3"><path d="M 19.3125 18.507812 L 30.257812 18.507812 L 30.257812 29.453125 L 19.3125 29.453125 Z M 19.3125 18.507812 " clip-rule="nonzero"/></clipPath></defs><g clip-path="url(#a1a1570aca)"><g clip-path="url(#639852bde7)"><path fill="#ffffff" d="M 0.488281 0 L 35.511719 0 L 35.511719 35.027344 L 0.488281 35.027344 Z M 0.488281 0 " fill-opacity="1" fill-rule="nonzero"/></g></g><g clip-path="url(#afe46f62c2)"><path fill="#e56217" d="M 24.527344 7.828125 L 23.480469 7.828125 L 23.480469 6.257812 C 23.480469 5.882812 23.171875 5.578125 22.796875 5.578125 C 22.421875 5.578125 22.117188 5.886719 22.117188 6.257812 L 22.117188 7.832031 L 12.75 7.832031 L 12.75 6.257812 C 12.75 5.882812 12.441406 5.578125 12.070312 5.578125 C 11.691406 5.578125 11.386719 5.886719 11.386719 6.257812 L 11.386719 7.832031 L 10.726562 7.832031 C 8.570312 7.832031 6.824219 9.578125 6.824219 11.730469 L 6.824219 24.277344 C 6.824219 26.429688 8.570312 28.175781 10.726562 28.175781 L 24.527344 28.175781 C 26.683594 28.175781 28.429688 26.429688 28.429688 24.277344 L 28.429688 11.730469 C 28.433594 9.578125 26.683594 7.828125 24.527344 7.828125 Z M 22.113281 8.550781 L 22.113281 9.964844 C 22.113281 10.34375 22.421875 10.648438 22.792969 10.648438 C 23.171875 10.648438 23.476562 10.339844 23.476562 9.964844 L 23.476562 8.601562 C 23.914062 8.855469 24.207031 9.328125 24.207031 9.871094 C 24.207031 10.679688 23.550781 11.332031 22.742188 11.332031 C 21.9375 11.332031 21.28125 10.679688 21.28125 9.871094 C 21.285156 9.285156 21.625 8.785156 22.113281 8.550781 Z M 11.382812 8.574219 L 11.382812 9.964844 C 11.382812 10.34375 11.691406 10.648438 12.066406 10.648438 C 12.441406 10.648438 12.746094 10.339844 12.746094 9.964844 L 12.746094 8.574219 C 13.210938 8.820312 13.527344 9.304688 13.527344 9.867188 C 13.527344 10.675781 12.871094 11.332031 12.0625 11.332031 C 11.253906 11.332031 10.597656 10.675781 10.597656 9.867188 C 10.605469 9.304688 10.921875 8.820312 11.382812 8.574219 Z M 27.066406 24.273438 C 27.066406 25.671875 25.929688 26.808594 24.53125 26.808594 L 10.726562 26.808594 C 9.324219 26.808594 8.191406 25.671875 8.191406 24.273438 L 8.191406 13.882812 L 27.066406 13.882812 Z M 27.066406 24.273438 " fill-opacity="1" fill-rule="nonzero"/></g><path fill="#e56217" d="M 12.769531 17.816406 L 10.878906 17.816406 C 10.726562 17.816406 10.605469 17.691406 10.605469 17.539062 L 10.605469 15.652344 C 10.605469 15.5 10.726562 15.375 10.878906 15.375 L 12.769531 15.375 C 12.921875 15.375 13.046875 15.5 13.046875 15.652344 L 13.046875 17.539062 C 13.042969 17.691406 12.921875 17.816406 12.769531 17.816406 Z M 12.769531 17.816406 " fill-opacity="1" fill-rule="nonzero"/><path fill="#e56217" d="M 12.769531 21.691406 L 10.878906 21.691406 C 10.726562 21.691406 10.605469 21.566406 10.605469 21.414062 L 10.605469 19.527344 C 10.605469 19.375 10.726562 19.25 10.878906 19.25 L 12.769531 19.25 C 12.921875 19.25 13.046875 19.375 13.046875 19.527344 L 13.046875 21.414062 C 13.042969 21.570312 12.921875 21.691406 12.769531 21.691406 Z M 12.769531 21.691406 " fill-opacity="1" fill-rule="nonzero"/><path fill="#e56217" d="M 12.769531 25.570312 L 10.878906 25.570312 C 10.726562 25.570312 10.605469 25.445312 10.605469 25.292969 L 10.605469 23.402344 C 10.605469 23.25 10.726562 23.128906 10.878906 23.128906 L 12.769531 23.128906 C 12.921875 23.128906 13.046875 23.25 13.046875 23.402344 L 13.046875 25.296875 C 13.042969 25.445312 12.921875 25.570312 12.769531 25.570312 Z M 12.769531 25.570312 " fill-opacity="1" fill-rule="nonzero"/><path fill="#e56217" d="M 16.644531 17.816406 L 14.753906 17.816406 C 14.601562 17.816406 14.480469 17.691406 14.480469 17.539062 L 14.480469 15.652344 C 14.480469 15.5 14.601562 15.375 14.753906 15.375 L 16.644531 15.375 C 16.796875 15.375 16.921875 15.5 16.921875 15.652344 L 16.921875 17.539062 C 16.921875 17.691406 16.796875 17.816406 16.644531 17.816406 Z M 16.644531 17.816406 " fill-opacity="1" fill-rule="nonzero"/><path fill="#e56217" d="M 16.644531 21.691406 L 14.753906 21.691406 C 14.601562 21.691406 14.480469 21.566406 14.480469 21.414062 L 14.480469 19.527344 C 14.480469 19.375 14.601562 19.25 14.753906 19.25 L 16.644531 19.25 C 16.796875 19.25 16.921875 19.375 16.921875 19.527344 L 16.921875 21.414062 C 16.921875 21.570312 16.796875 21.691406 16.644531 21.691406 Z M 16.644531 21.691406 " fill-opacity="1" fill-rule="nonzero"/><path fill="#e56217" d="M 16.644531 25.570312 L 14.753906 25.570312 C 14.601562 25.570312 14.480469 25.445312 14.480469 25.292969 L 14.480469 23.402344 C 14.480469 23.25 14.601562 23.128906 14.753906 23.128906 L 16.644531 23.128906 C 16.796875 23.128906 16.921875 23.25 16.921875 23.402344 L 16.921875 25.296875 C 16.921875 25.445312 16.796875 25.570312 16.644531 25.570312 Z M 16.644531 25.570312 " fill-opacity="1" fill-rule="nonzero"/><path fill="#e56217" d="M 20.523438 17.816406 L 18.632812 17.816406 C 18.480469 17.816406 18.355469 17.691406 18.355469 17.539062 L 18.355469 15.652344 C 18.355469 15.5 18.480469 15.375 18.632812 15.375 L 20.523438 15.375 C 20.675781 15.375 20.796875 15.5 20.796875 15.652344 L 20.796875 17.539062 C 20.796875 17.691406 20.675781 17.816406 20.523438 17.816406 Z M 20.523438 17.816406 " fill-opacity="1" fill-rule="nonzero"/><path fill="#e56217" d="M 20.523438 21.691406 L 18.632812 21.691406 C 18.480469 21.691406 18.355469 21.566406 18.355469 21.414062 L 18.355469 19.527344 C 18.355469 19.375 18.480469 19.25 18.632812 19.25 L 20.523438 19.25 C 20.675781 19.25 20.796875 19.375 20.796875 19.527344 L 20.796875 21.414062 C 20.796875 21.570312 20.675781 21.691406 20.523438 21.691406 Z M 20.523438 21.691406 " fill-opacity="1" fill-rule="nonzero"/><path fill="#e56217" d="M 20.523438 25.570312 L 18.632812 25.570312 C 18.480469 25.570312 18.355469 25.445312 18.355469 25.292969 L 18.355469 23.402344 C 18.355469 23.25 18.480469 23.128906 18.632812 23.128906 L 20.523438 23.128906 C 20.675781 23.128906 20.796875 23.25 20.796875 23.402344 L 20.796875 25.296875 C 20.796875 25.445312 20.675781 25.570312 20.523438 25.570312 Z M 20.523438 25.570312 " fill-opacity="1" fill-rule="nonzero"/><path fill="#e56217" d="M 24.398438 17.816406 L 22.511719 17.816406 C 22.359375 17.816406 22.234375 17.691406 22.234375 17.539062 L 22.234375 15.652344 C 22.234375 15.5 22.359375 15.375 22.511719 15.375 L 24.398438 15.375 C 24.550781 15.375 24.675781 15.5 24.675781 15.652344 L 24.675781 17.539062 C 24.671875 17.691406 24.550781 17.816406 24.398438 17.816406 Z M 24.398438 17.816406 " fill-opacity="1" fill-rule="nonzero"/><path fill="#e56217" d="M 24.398438 21.691406 L 22.511719 21.691406 C 22.359375 21.691406 22.234375 21.566406 22.234375 21.414062 L 22.234375 19.527344 C 22.234375 19.375 22.359375 19.25 22.511719 19.25 L 24.398438 19.25 C 24.550781 19.25 24.675781 19.375 24.675781 19.527344 L 24.675781 21.414062 C 24.671875 21.570312 24.550781 21.691406 24.398438 21.691406 Z M 24.398438 21.691406 " fill-opacity="1" fill-rule="nonzero"/><g clip-path="url(#f31f6a12b3)"><path fill="#e56217" d="M 30.257812 23.980469 C 30.257812 24.339844 30.222656 24.699219 30.152344 25.050781 C 30.082031 25.402344 29.980469 25.746094 29.839844 26.078125 C 29.703125 26.410156 29.535156 26.722656 29.335938 27.023438 C 29.136719 27.320312 28.910156 27.597656 28.65625 27.851562 C 28.402344 28.105469 28.125 28.332031 27.824219 28.53125 C 27.527344 28.730469 27.210938 28.902344 26.878906 29.039062 C 26.546875 29.175781 26.207031 29.28125 25.851562 29.351562 C 25.5 29.421875 25.144531 29.453125 24.785156 29.453125 C 24.425781 29.453125 24.070312 29.421875 23.71875 29.351562 C 23.363281 29.28125 23.023438 29.175781 22.691406 29.039062 C 22.359375 28.902344 22.042969 28.730469 21.746094 28.53125 C 21.445312 28.332031 21.167969 28.105469 20.914062 27.851562 C 20.660156 27.597656 20.433594 27.320312 20.234375 27.023438 C 20.035156 26.722656 19.867188 26.410156 19.730469 26.078125 C 19.589844 25.746094 19.488281 25.402344 19.417969 25.050781 C 19.347656 24.699219 19.3125 24.339844 19.3125 23.980469 C 19.3125 23.621094 19.347656 23.265625 19.417969 22.914062 C 19.488281 22.5625 19.589844 22.21875 19.730469 21.886719 C 19.867188 21.554688 20.035156 21.242188 20.234375 20.941406 C 20.433594 20.644531 20.660156 20.367188 20.914062 20.113281 C 21.167969 19.859375 21.445312 19.632812 21.746094 19.429688 C 22.042969 19.230469 22.359375 19.0625 22.691406 18.925781 C 23.023438 18.789062 23.363281 18.683594 23.71875 18.613281 C 24.070312 18.542969 24.425781 18.507812 24.785156 18.507812 C 25.144531 18.507812 25.5 18.542969 25.851562 18.613281 C 26.207031 18.683594 26.546875 18.789062 26.878906 18.925781 C 27.210938 19.0625 27.527344 19.230469 27.824219 19.429688 C 28.125 19.632812 28.402344 19.859375 28.65625 20.113281 C 28.910156 20.367188 29.136719 20.644531 29.335938 20.941406 C 29.535156 21.242188 29.703125 21.554688 29.839844 21.886719 C 29.980469 22.21875 30.082031 22.5625 30.152344 22.914062 C 30.222656 23.265625 30.257812 23.621094 30.257812 23.980469 Z M 30.257812 23.980469 " fill-opacity="1" fill-rule="nonzero"/></g><path fill="#f2f2f2" d="M 27.789062 22.949219 C 28.082031 22.65625 28.082031 22.179688 27.789062 21.886719 C 27.496094 21.59375 27.023438 21.59375 26.730469 21.886719 L 24.132812 24.484375 L 22.835938 23.1875 C 22.542969 22.894531 22.066406 22.894531 21.773438 23.1875 C 21.480469 23.480469 21.480469 23.957031 21.773438 24.25 L 23.601562 26.078125 C 23.742188 26.21875 23.933594 26.296875 24.132812 26.296875 C 24.332031 26.296875 24.523438 26.21875 24.664062 26.078125 Z M 27.789062 22.949219 " fill-opacity="1" fill-rule="nonzero"/></svg>